<?xml version="1.0" encoding="UTF-8" standalone="no"?>
<!-- Created with Inkscape (http://www.inkscape.org/) -->

<svg
   width="297mm"
   height="210mm"
   viewBox="0 0 297 210"
   version="1.1"
   id="svg5"
   inkscape:version="1.2.1 (9c6d41e, 2022-07-14)"
   sodipodi:docname="drawing.svg"
   inkscape:export-filename="loginBackground.svg"
   inkscape:export-xdpi="96"
   inkscape:export-ydpi="96"
   xmlns:inkscape="http://www.inkscape.org/namespaces/inkscape"
   xmlns:sodipodi="http://sodipodi.sourceforge.net/DTD/sodipodi-0.dtd"
   xmlns="http://www.w3.org/2000/svg"
   xmlns:svg="http://www.w3.org/2000/svg">
  <sodipodi:namedview
     id="namedview7"
     pagecolor="#f5f5f5"
     bordercolor="#999999"
     borderopacity="1"
     inkscape:showpageshadow="0"
     inkscape:pageopacity="0"
     inkscape:pagecheckerboard="0"
     inkscape:deskcolor="#d1d1d1"
     inkscape:document-units="mm"
     showgrid="false"
     inkscape:zoom="0.74770551"
     inkscape:cx="482.8104"
     inkscape:cy="579.77371"
     inkscape:window-width="1440"
     inkscape:window-height="847"
     inkscape:window-x="0"
     inkscape:window-y="25"
     inkscape:window-maximized="0"
     inkscape:current-layer="layer1" />
  <defs
     id="defs2" />
  <g
     inkscape:label="Layer 1"
     inkscape:groupmode="layer"
     id="layer1">
    <path
       style="fill:#fff56d;fill-opacity:1;stroke:#000000;stroke-width:0.529167;stroke-dasharray:none"
       d="m 55.258196,212.50452 c -20.995321,0.17938 -63.5674206,-2.00801 -75.108126,-3.85913 -3.651503,-0.5857 -7.661771,-1.36607 -8.911709,-1.73416 -8.000744,-2.35609 -10.452185,-15.5046 -7.818626,-41.93585 1.893465,-19.00342 5.811497,-38.86916 12.004345,-60.86606 2.190785,-7.781628 7.193092,-22.875948 7.744206,-23.367918 0.947681,-0.84598 9.5089694,3.63407 14.4596654,7.56661 3.730989,2.96368 8.22048,8.76159 9.628205,12.434248 2.243327,5.85272 2.256786,7.57171 0.164453,21.00218 -0.735383,4.72034 -0.322962,7.1509 1.675778,9.87606 2.1323236,2.90729 5.7931646,5.04551 14.1972586,8.29233 10.105977,3.90431 12.927569,5.69002 14.347349,9.08005 1.613181,3.85181 0.595548,7.91305 -4.18472,16.70063 -5.139547,9.44802 -6.86063,15.28023 -5.611478,19.01549 0.720589,2.15473 3.711028,5.24973 8.157255,8.44249 7.311561,5.25031 14.203428,10.76209 18.57548,14.85576 2.452899,2.29672 4.454911,4.24095 4.448922,4.32051 -0.006,0.0796 -1.701702,0.1591 -3.768258,0.17676 z"
       id="path763" />
    <path
       style="fill:#fff56d;fill-opacity:1;stroke:#000000;stroke-width:0.529167;stroke-dasharray:none"
       d="m -15.268502,71.509122 c 17.6369304,1.32751 25.1468484,-0.5631 28.846371,-9.835261 3.699523,-9.272152 9.502639,-21.114715 21.86162,-18.547224 12.35898,2.567492 21.14389,1.864352 22.523917,-9.219633 C 59.343434,22.823009 40.139749,20.558955 34.797609,8.1503727 29.45547,-4.2582003 34.63422,-15.05626 34.63422,-15.05626 l -42.7925286,6.6025437 z"
       id="path5065" />
    <path
       style="fill:#fff56d;fill-opacity:1;stroke:#000000;stroke-width:0.541506;stroke-dasharray:none"
       d="m 42.57853,58.409486 c 18.0396,1.270192 47.607829,15.534266 33.122988,33.223986 -14.484853,17.689708 -16.974876,-3.83859 -25.783947,0.33564 -8.809074,4.17421 -14.63393,19.670308 -0.813649,14.450558 13.820287,-5.21976 20.69136,16.35374 11.213911,18.48584 -9.47745,2.1321 -25.886059,-1.94841 -36.640185,-19.26147 C 8.4206253,82.28485 24.53893,57.139294 42.57853,58.409486 Z"
       id="path5073"
       sodipodi:nodetypes="zsssscz" />
    <path
       style="fill:#fff56d;fill-opacity:1;stroke:#000000;stroke-width:0.529167;stroke-dasharray:none"
       d="m 83.441187,40.556098 c -3.39625,-2.812423 -3.860296,-4.786982 -2.858343,-8.150015 1.001943,-3.363024 7.447254,-5.787351 9.940324,-4.541717 2.493069,1.245634 4.860972,7.771758 2.156962,12.946311 -2.704,5.174544 -9.238943,-0.254579 -9.238943,-0.254579 z"
       id="path9257" />
    <path
       style="fill:#fff56d;fill-opacity:1;stroke:#000000;stroke-width:0.529167;stroke-dasharray:none"
       d="m 56.668313,161.14166 c -2.861622,-3.20665 -4.593085,-7.95353 -2.727511,-11.37882 2.392736,-4.39319 10.293971,-8.15492 14.158023,-4.97775 4.410316,3.62633 5.14984,12.10553 -2.451277,16.95292 -5.482107,3.49605 -8.979235,-0.59634 -8.979235,-0.59634 z"
       id="path9257-7"
       sodipodi:nodetypes="caascc" />
    <path
       style="fill:#fff56d;fill-opacity:1;stroke:#000000;stroke-width:0.529167;stroke-dasharray:none"
       d="m 104.31622,221.60839 c -8.699067,-34.19061 -2.57327,-44.43845 4.92052,-61.62867 7.49378,-17.19022 -29.155581,-35.73034 -7.69267,-51.30549 21.46291,-15.575148 58.87761,-29.667818 36.35405,-56.162751 -22.52354,-26.49493 -1.28361,-20.38721 -3.32655,-30.686266 -2.04294,-10.299067 -26.8053,-22.02637832 -26.8053,-22.02637832 l 56.48817,-1.66630498 c 0,0 8.31037,-5.574388 3.655,7.602265 -4.65537,13.1766623 -9.48851,62.4120973 11.23014,52.9808263 20.71866,-9.431276 28.05276,20.429381 10.33524,46.149929 -17.71752,25.72055 -24.94013,-1.87721 -31.79513,10.57026 -6.85498,12.44746 34.60945,23.1774 29.21886,34.88966 -5.39058,11.71224 -33.55482,15.22864 -32.24106,27.72732 1.31375,12.49869 1.87119,50.02188 -20.31489,45.25201 -22.18607,-4.76986 -30.02638,-1.69641 -30.02638,-1.69641 z"
       id="path9281" />
    <path
       style="fill:#fff56d;fill-opacity:1;stroke:#000000;stroke-width:0.529167;stroke-dasharray:none"
       d="m 218.68667,221.99975 c -22.22872,-22.01272 -29.55969,-33.66547 -8.83818,-49.77721 20.7215,-16.11175 48.3514,-26.95117 37.91577,18.10881 -10.4356,45.05998 65.78358,12.56884 47.27252,-8.5215 -18.51105,-21.09035 -43.9811,-28.86528 -38.63052,-43.12968 5.3506,-14.26439 -25.47056,-12.33617 -3.43176,-37.01687 22.03881,-24.68073 34.11519,-16.508777 32.95647,-4.406844 -1.15869,12.101944 0.98083,46.113294 12.97423,20.590044 11.99341,-25.523265 1.86561,-55.499781 -14.05832,-47.772834 -15.92392,7.726934 -29.60766,7.728507 -26.31417,-11.413292 3.29351,-19.141784 42.68414,-15.191459 19.61184,-36.281288 -23.0723,-21.0898293 -56.8995,-22.43059402 -56.8995,-22.43059402 l 94.36245,0.1210178 -17.53491,214.48605022 -62.45668,29.6948 z"
       id="path9294" />
    <path
       style="fill:#fff56d;fill-opacity:1;stroke:#000000;stroke-width:0.529167;stroke-dasharray:none"
       d="m 220.82693,137.26651 c -16.13022,-7.47389 -21.95316,-22.51835 -14.09257,-29.92531 7.86061,-7.406958 13.22991,-9.437188 16.75491,-0.82548 3.525,8.61171 10.61963,20.62199 6.32121,26.90601 -4.29841,6.28402 -8.98355,3.84478 -8.98355,3.84478 z"
       id="path9308" />
    <path
       style="fill:#f5f5f5;fill-opacity:1;stroke:#000000;stroke-width:0.529167;stroke-dasharray:none"
       d="m 67.840605,83.119149 c 0.94421,-2.58238 -2.56778,-7.12804 -5.21644,-6.3899 -2.45437,0.684 -2.91549,5.80624 -1.07463,7.56778 1.54143,1.47501 5.55843,0.82584 6.29107,-1.17788 z"
       id="path9310"
       sodipodi:nodetypes="aaaa" />
    <path
       style="fill:#f5f5f5;fill-opacity:1;stroke:#000000;stroke-width:0.529167;stroke-dasharray:none"
       d="m 123.42069,152.24536 c 9.36041,17.51341 13.53108,-10.7556 12.62825,-17.60717 -0.90283,-6.85157 -3.07335,-25.50459 -15.31156,-12.54929 -12.23821,12.9553 -0.72117,23.78665 2.68331,30.15646 z"
       id="path9310-0"
       sodipodi:nodetypes="szss" />
    <path
       style="fill:#fff56d;fill-opacity:1;stroke:#000000;stroke-width:0.529167;stroke-dasharray:none"
       d="m 207.57882,37.994453 c 0.86275,-5.978866 8.43615,-14.979207 15.54471,-14.635828 8.76776,0.423527 19.41837,13.191709 17.34378,19.815906 -2.07459,6.624197 -14.61486,-2.127736 -14.85818,3.711921 -0.24332,5.839657 -7.06444,5.341852 -10.51512,3.967221 -3.45068,-1.374631 -8.37794,-6.880354 -7.51519,-12.85922 z"
       id="path12436"
       sodipodi:nodetypes="zazzzz" />
    <ellipse
       style="fill:#f5f5f5;fill-opacity:1;stroke:#000000;stroke-width:0.529167;stroke-dasharray:none"
       id="path13164"
       cx="117.51653"
       cy="111.6889"
       rx="1.9465522"
       ry="2.3115306" />
    <ellipse
       style="fill:#f5f5f5;fill-opacity:1;stroke:#000000;stroke-width:0.529167;stroke-dasharray:none"
       id="path14947"
       cx="109.17083"
       cy="118.89633"
       rx="4.9065547"
       ry="7.0969801" />
    <path
       style="fill:#f5f5f5;fill-opacity:1;stroke:#000000;stroke-width:0.529167;stroke-dasharray:none"
       d="m 216.33137,36.100019 c -0.1199,2.22298 3.40027,3.301092 5.60085,3.637939 1.68144,0.257381 4.1121,0.127292 4.9151,-1.372264 1.07761,-2.012368 -0.0152,-5.635167 -2.12339,-6.510687 -2.89526,-1.202408 -8.22372,1.114538 -8.39256,4.245012 z"
       id="path14987"
       sodipodi:nodetypes="aaaaa" />
  </g>
</svg>
